<svg xmlns="http://www.w3.org/2000/svg" viewBox="0 0 100 100" preserveAspectRatio="xMidYMid" width="200" height="200" style="background:0 0" display="block">
    <rect fill="currentColor" height="20" width="20" ry="10" rx="10" x="40" />
    <rect fill="currentColor" height="20" width="20" ry="10" rx="10" x="40" transform="rotate(45 50 50)" />
    <rect fill="currentColor" height="20" width="20" ry="10" rx="10" x="40" transform="rotate(90 50 50)" />
    <rect fill="currentColor" height="20" width="20" ry="10" rx="10" x="40" transform="rotate(135 50 50)" />
    <rect fill="currentColor" height="20" width="20" ry="10" rx="10" x="40" transform="rotate(180 50 50)" />
    <rect fill="currentColor" height="20" width="20" ry="10" rx="10" x="40" transform="rotate(225 50 50)" />
    <rect fill="currentColor" height="20" width="20" ry="10" rx="10" x="40" transform="rotate(270 50 50)" />
    <rect fill="currentColor" height="20" width="20" ry="10" rx="10" x="40" transform="rotate(315 50 50)" />
</svg>